# xmcd CD database file
#
# Track frame offsets:
#	150
#	15688
#	27433
#	47149
#	60500
#	79026
#	95743
#	120535
#	129629
#	148032
#	169929
#	191086
#
# Disc length: 2695 seconds
#
# Revision: 0
# Processed by: cddbd v1.5.2PL0 Copyright (c) Steve Scherf et al.
# Submitted via: CDex 1.79
#
DISCID=a70a850c
DTITLE=Shelli Coe - A Girl Like Me
DYEAR=2010
DGENRE=Country
TTITLE0=A Girl Like Me
TTITLE1=Truly
TTITLE2=Falling At The Speed Of Sound
TTITLE3=Red Lights Flashing
TTITLE4=I Love You (I Just Do)
TTITLE5=If This Is Just A Game
TTITLE6=Bryan`s Song
TTITLE7=No More Me And You
TTITLE8=May Your Heart Rest In Pieces
TTITLE9=That Memory Of Mine
TTITLE10=Please Come To Boston
TTITLE11=Face To Face
EXTD=YEAR: 2010
EXTT0=
EXTT1=
EXTT2=
EXTT3=
EXTT4=
EXTT5=
EXTT6=
EXTT7=
EXTT8=
EXTT9=
EXTT10=
EXTT11=
PLAYORDER=
